<svg xmlns="http://www.w3.org/2000/svg" width="36" height="24" viewBox="0 0 36 24">
    <g fill="none" fill-rule="evenodd">
        <rect width="36" height="24" fill="#FFF" rx="4"/>
        <g fill="#0072CE">
            <path d="M36 14.314h-1.844c-.184 0-.306.007-.41.079-.106.07-.147.175-.147.314 0 .165.09.277.22.325.108.039.222.05.39.05l.55.015c.553.014.922.112 1.147.352.041.033.066.07.094.108v-1.243zm0 2.88c-.246.37-.725.559-1.373.559h-1.954v-.937h1.946c.193 0 .328-.026.41-.108a.39.39 0 0 0 .12-.285.364.364 0 0 0-.124-.289c-.074-.067-.18-.097-.357-.097-.95-.033-2.135.03-2.135-1.352 0-.634.39-1.3 1.451-1.3H36v-.87h-1.873c-.565 0-.975.14-1.266.357v-.357h-2.77c-.443 0-.963.113-1.209.357v-.357h-4.946v.357c-.394-.293-1.058-.357-1.364-.357h-3.263v.357c-.311-.312-1.004-.357-1.426-.357h-3.651l-.836.933-.783-.933H7.16v6.096h5.352l.86-.948.812.948 3.299.003V17.18h.324c.438.007.954-.011 1.41-.214v1.645h2.72v-1.589h.132c.167 0 .184.007.184.18v1.409h8.265c.525 0 1.074-.139 1.377-.39v.39h2.622c.546 0 1.079-.08 1.484-.281v-1.136zm-4.036-1.745c.197.21.302.476.302.925 0 .94-.569 1.379-1.589 1.379h-1.97v-.937h1.962c.192 0 .328-.026.413-.108a.393.393 0 0 0 .12-.285.38.38 0 0 0-.124-.289c-.077-.067-.184-.097-.36-.097-.946-.033-2.131.03-2.131-1.352 0-.634.386-1.3 1.446-1.3h2.029v.929h-1.856c-.184 0-.304.007-.406.079-.11.07-.152.176-.152.314 0 .165.095.277.222.326.107.038.221.05.394.05l.544.014c.55.014.927.112 1.156.352zm-9.13-.27c-.136.083-.303.09-.5.09h-1.23v-.981h1.247c.18 0 .36.004.482.079.132.07.21.206.21.393 0 .186-.078.337-.21.419zm.61.544c.226.085.41.24.496.366.143.214.164.413.168.798v.866h-1.016v-.547c0-.263.025-.652-.164-.855-.147-.156-.373-.194-.742-.194h-1.081v1.596h-1.017v-4.369h2.336c.512 0 .885.023 1.218.206.319.2.52.472.52.97 0 .698-.451 1.054-.717 1.163zm1.279-2.339H28.1v.904h-2.37v.794h2.312v.891H25.73v.87l2.37.003v.907h-3.377v-4.369zM17.896 15.4h-1.308v-1.112h1.32c.365 0 .619.153.619.535 0 .378-.242.577-.631.577zm-2.316 1.956l-1.553-1.78 1.553-1.723v3.503zm-4.012-.514H9.081v-.869h2.221v-.891H9.081v-.794h2.536l1.107 1.273-1.156 1.281zm8.045-2.019c0 1.214-.878 1.465-1.762 1.465h-1.263v1.465h-1.966l-1.246-1.446-1.295 1.446H8.073v-4.369h4.07l1.244 1.432 1.287-1.432h3.234c.803 0 1.705.23 1.705 1.44zM3.245 8.35l-.692-1.742-.69 1.741h1.382zm15.257-.694c-.139.087-.303.09-.5.09h-1.23v-.97h1.246c.177 0 .36.008.48.078.131.064.213.2.213.387 0 .19-.078.344-.209.415zm8.77.693l-.701-1.741-.696 1.741h1.396zm-16.347 1.885H9.888l-.004-3.42-1.467 3.42h-.889L6.058 6.81v3.424H3.998L3.61 9.26H1.504l-.393.974H.01l1.813-4.368h1.503l1.721 4.136V5.866H6.7L8.024 8.83 9.24 5.866h1.685v4.368zm4.134 0h-3.38V5.866h3.38v.91h-2.368v.787h2.312v.895H12.69v.873h2.368v.903zm4.766-3.192c0 .697-.45 1.057-.713 1.165.222.087.41.24.5.368.144.217.168.41.168.8v.859h-1.02l-.004-.55c0-.264.024-.642-.16-.852-.148-.153-.373-.187-.737-.187h-1.087v1.589h-1.011V5.866h2.327c.517 0 .898.014 1.225.21.32.194.512.48.512.966zm1.62 3.192h-1.033V5.866h1.033v4.368zm11.977 0H31.99L30.07 6.956v3.278H28.01l-.394-.974h-2.102l-.382.974h-1.184c-.492 0-1.114-.112-1.467-.483-.356-.371-.54-.873-.54-1.668 0-.647.11-1.24.545-1.708.327-.348.84-.509 1.536-.509h.98v.936h-.959c-.37 0-.578.057-.779.259-.172.184-.29.531-.29.99 0 .467.09.805.278 1.025.155.173.439.225.705.225h.454l1.426-3.435h1.517l1.713 4.132V5.866h1.54l1.779 3.042V5.866h1.036v4.368zM0 11.092H1.73l.39-.97h.873l.388.97h3.402v-.742l.304.745H8.85l.304-.756v.753h8.454l-.004-1.593h.163c.115.004.148.015.148.21v1.383h4.373v-.37c.352.194.9.37 1.623.37h1.84l.393-.97h.873l.384.97h3.545v-.922l.537.922h2.84V5h-2.81v.72L31.12 5h-2.885v.72L27.874 5h-3.897c-.652 0-1.225.094-1.688.356V5h-2.69v.356c-.294-.27-.695-.356-1.142-.356H8.634l-.66 1.573L7.299 5H4.204v.72L3.864 5H1.225L0 7.896v3.196z"/>
        </g>
    </g>
</svg>
