<svg xmlns="http://www.w3.org/2000/svg" width="36" height="24" viewBox="0 0 36 24">
    <g fill="none" fill-rule="evenodd">
        <rect width="36" height="24" fill="#FFF" rx="4"/>
        <path fill="#1A1919" d="M7.456 14.46c0-.45-.225-.42-.44-.426v-.13c.187.01.378.01.565.01.2 0 .473-.01.826-.01 1.238 0 1.912.867 1.912 1.754 0 .497-.277 1.745-1.969 1.745-.244 0-.468-.01-.693-.01-.215 0-.426.004-.64.01v-.13c.286-.031.425-.04.439-.382v-2.43zm.468 2.351c0 .386.263.431.498.431 1.032 0 1.371-.817 1.371-1.564 0-.937-.573-1.613-1.496-1.613-.196 0-.286.014-.373.02v2.726zM10.487 17.272h.09c.134 0 .23 0 .23-.165v-1.359c0-.22-.072-.25-.25-.35v-.08c.226-.071.493-.166.512-.18a.163.163 0 0 1 .087-.026c.023 0 .033.03.033.07v1.925c0 .165.105.165.24.165h.08v.13c-.162 0-.33-.01-.501-.01-.173 0-.345.005-.521.01v-.13zm.51-2.932c-.124 0-.233-.12-.233-.25 0-.126.115-.241.234-.241a.24.24 0 0 1 .234.24c0 .136-.105.251-.234.251zM11.963 15.779c0-.186-.053-.236-.277-.331v-.095c.205-.07.401-.136.63-.241.015 0 .03.01.03.05v.326c.272-.205.506-.376.827-.376.406 0 .549.31.549.702v1.293c0 .165.105.165.239.165h.086v.13c-.168 0-.335-.01-.506-.01-.173 0-.345.005-.517.01v-.13h.086c.134 0 .23 0 .23-.165v-1.298c0-.286-.167-.426-.44-.426-.153 0-.397.13-.555.24v1.484c0 .165.106.165.24.165h.086v.13c-.168 0-.335-.01-.507-.01s-.344.005-.516.01v-.13h.086c.134 0 .23 0 .23-.165v-1.328M14.41 16.02c-.01.045-.01.12 0 .29.029.476.32.867.703.867.263 0 .469-.15.645-.336l.067.07c-.22.306-.492.567-.884.567-.76 0-.913-.772-.913-1.093 0-.982.63-1.273.965-1.273.387 0 .804.255.808.787 0 .03 0 .06-.004.09l-.044.03H14.41zm.847-.161c.119 0 .133-.065.133-.126 0-.255-.148-.46-.416-.46-.291 0-.492.225-.55.586h.833zM15.911 17.272h.13c.133 0 .228 0 .228-.165v-1.409c0-.155-.176-.185-.248-.225v-.075c.349-.156.54-.286.584-.286.028 0 .042.015.042.065v.451h.01c.12-.195.32-.516.612-.516.119 0 .272.085.272.266 0 .135-.09.256-.224.256-.149 0-.149-.121-.316-.121a.415.415 0 0 0-.35.416v1.178c0 .165.096.165.23.165h.268v.13c-.263-.005-.463-.01-.669-.01-.196 0-.397.005-.569.01v-.13M17.751 16.706c.062.33.253.612.603.612.281 0 .386-.181.386-.356 0-.592-1.041-.401-1.041-1.208 0-.281.215-.642.74-.642.153 0 .359.045.545.146l.033.51h-.11c-.047-.315-.214-.495-.52-.495-.192 0-.373.115-.373.33 0 .587 1.109.406 1.109 1.193 0 .33-.253.682-.822.682-.191 0-.416-.07-.583-.17l-.053-.577.086-.025M23.438 14.811h-.12c-.09-.586-.487-.822-1.022-.822-.55 0-1.348.386-1.348 1.589 0 1.013.689 1.74 1.425 1.74.472 0 .865-.341.96-.868l.11.03-.11.732c-.2.13-.74.266-1.056.266-1.118 0-1.825-.757-1.825-1.885 0-1.027.874-1.764 1.81-1.764.388 0 .76.13 1.129.266l.047.716M23.61 17.272h.091c.134 0 .23 0 .23-.165v-2.792c0-.326-.072-.336-.254-.39v-.081c.191-.065.392-.155.493-.216.052-.03.09-.055.105-.055.029 0 .038.03.038.07v3.464c0 .165.105.165.24.165h.08v.13c-.162 0-.33-.01-.501-.01-.172 0-.344.005-.521.01v-.13M26.68 17.127c0 .09.052.095.133.095.057 0 .129-.005.191-.005v.106a4.65 4.65 0 0 0-.688.155l-.024-.015v-.406c-.287.245-.507.421-.847.421-.258 0-.525-.176-.525-.596v-1.284c0-.13-.02-.256-.286-.28v-.096c.172-.005.553-.035.616-.035.053 0 .053.035.053.146v1.293c0 .15 0 .58.415.58.163 0 .378-.13.578-.304v-1.349c0-.1-.229-.155-.4-.205v-.09c.429-.03.697-.07.745-.07.038 0 .038.034.038.09v1.849M27.63 15.473c.191-.17.45-.361.712-.361.555 0 .89.507.89 1.053 0 .656-.46 1.313-1.143 1.313-.354 0-.54-.12-.665-.176l-.143.116-.1-.055c.043-.296.067-.587.067-.893v-2.155c0-.326-.072-.336-.254-.39v-.081c.192-.065.392-.155.493-.216.052-.03.09-.055.105-.055.028 0 .038.03.038.07v1.83zm0 1.363c0 .19.172.512.492.512.512 0 .727-.527.727-.973 0-.541-.392-.992-.765-.992-.177 0-.325.12-.454.236v1.217zM7.011 20.317h.037c.093 0 .192-.013.192-.155v-1.43c0-.141-.099-.155-.192-.155H7.01v-.082c.102 0 .258.011.386.011.13 0 .285-.01.408-.01v.081h-.037c-.093 0-.192.014-.192.156v1.429c0 .142.099.155.192.155h.037v.082c-.125 0-.282-.01-.411-.01-.128 0-.281.01-.383.01v-.082"/>
        <path fill="#1A1919" d="M7.986 20.41c-.154 0-.345-.01-.504-.01-.156 0-.343.01-.468.01H7v-.105h.058c.116-.002.221-.01.222-.143v-1.43c0-.133-.106-.141-.222-.143H7v-.106h.014c.125 0 .316.011.472.011.158 0 .35-.01.5-.01H8v.105h-.059c-.115.002-.221.01-.222.144v1.429c0 .133.107.14.222.143H8v.106h-.014zm-.014-.023v-.058h-.03c-.115 0-.25-.017-.25-.167v-1.43c0-.15.135-.167.25-.167h.03v-.058c-.147 0-.332.011-.486.011-.152 0-.335-.01-.458-.011v.058h.03c.114 0 .25.017.25.168v1.429c0 .15-.136.167-.25.167h-.03v.058c.123 0 .303-.01.454-.01.156 0 .34.01.49.01z"/>
        <path fill="#1A1919" d="M9.591 19.861l.005-.005v-1.022c0-.224-.148-.257-.226-.257h-.057v-.082c.122 0 .242.011.364.011.106 0 .213-.01.32-.01v.081h-.039c-.11 0-.232.022-.232.346v1.241c0 .096.003.191.015.276h-.098l-1.34-1.566v1.124c0 .238.045.319.245.319h.044v.082c-.112 0-.223-.01-.335-.01-.117 0-.237.01-.354.01v-.082h.037c.179 0 .234-.128.234-.346v-1.149a.239.239 0 0 0-.237-.245h-.034v-.082c.099 0 .2.011.299.011.078 0 .154-.01.232-.01L9.59 19.86"/>
        <path fill="#1A1919" d="M9.741 20.451l-.107-.003-1.32-1.543v1.093c.004.237.038.305.234.307h.056v.106h-.012c-.112 0-.224-.011-.335-.011-.117 0-.236.01-.354.01h-.011v-.105h.048c.171 0 .22-.117.222-.334v-1.148a.228.228 0 0 0-.225-.234h-.045v-.106h.011c.1 0 .201.011.299.011.077 0 .152-.01.24-.006l1.143 1.349v-1.003c-.001-.217-.14-.243-.215-.245h-.069v-.106h.012c.123 0 .242.011.364.011.106 0 .212-.01.32-.01h.011v.105h-.05c-.107.003-.218.013-.22.334v1.241c0 .096.002.191.015.274l.002.013h-.014zm-.098-.023h.086a1.925 1.925 0 0 1-.014-.264v-1.24c0-.328.13-.359.243-.359h.027v-.058c-.102 0-.205.01-.308.01-.12 0-.235-.01-.353-.01v.058h.046c.08 0 .238.038.238.269l-.004 1.03-.005.006-.009.009-1.156-1.372c-.078 0-.153.01-.232.01-.096 0-.193-.01-.288-.01v.058h.023a.25.25 0 0 1 .248.258v1.148c0 .218-.058.358-.245.359l-.026-.001v.058c.113 0 .23-.01.343-.01.108 0 .217.01.324.01v-.057h-.033c-.205-.001-.255-.095-.256-.332v-1.154l1.35 1.584zm-.052-.567l.008-.007-.008.007zm-.006-.005l-.002-.003.002.003zM10.386 18.632c-.195 0-.203.049-.242.248h-.078c.01-.077.024-.153.032-.232.01-.077.015-.153.015-.232h.063c.02.082.086.08.156.08h1.341c.071 0 .136-.003.141-.085l.062.01c-.01.074-.02.148-.028.222-.005.073-.005.147-.005.22l-.078.03c-.006-.1-.018-.261-.193-.261h-.426v1.45c0 .211.091.235.216.235h.05v.082c-.102 0-.284-.01-.425-.01-.156 0-.338.01-.44.01v-.082h.05c.143 0 .216-.013.216-.229v-1.456h-.427"/>
        <path fill="#1A1919" d="M11.411 20.41c-.102 0-.284-.01-.424-.01-.156 0-.338.01-.44.01h-.01v-.105h.06c.143-.003.201-.005.204-.217v-1.445h-.415v-.024h.438v1.47c0 .218-.084.24-.227.24h-.038v.058c.102 0 .277-.01.428-.01.136 0 .31.01.413.01v-.057h-.038c-.126 0-.227-.033-.227-.247v-1.464h.437c.175.001.198.157.203.258l.057-.022c0-.07 0-.142.005-.214.007-.07.017-.14.026-.21l-.04-.006c-.011.079-.085.083-.15.082H10.32c-.062 0-.128-.003-.152-.079h-.043c0 .075-.005.149-.015.221-.008.075-.02.147-.029.22h.056c.034-.19.056-.252.25-.25v.024c-.192.004-.188.038-.23.24l-.002.009h-.1v-.014c.011-.076.025-.153.032-.232a1.61 1.61 0 0 0 .016-.23v-.012h.083l.002.009c.017.069.065.07.132.07h1.354c.073 0 .126-.002.13-.073v-.013l.013.002.073.013-.002.012c-.01.073-.02.146-.028.22-.005.072-.005.146-.005.22v.008l-.007.003-.092.035-.001-.016c-.007-.102-.017-.25-.182-.25h-.415v1.439c.003.205.08.22.205.222h.06v.106h-.01M11.96 20.317h.036c.093 0 .192-.013.192-.155v-1.43c0-.141-.099-.155-.192-.155h-.037v-.082c.158 0 .43.011.648.011.218 0 .489-.01.665-.01-.004.117-.002.297.006.417l-.078.021c-.013-.177-.044-.318-.317-.318h-.361v.714h.309c.156 0 .19-.093.205-.24h.078a6.522 6.522 0 0 0 0 .63l-.078.016c-.015-.163-.023-.27-.203-.27h-.311v.635c0 .178.15.178.316.178.313 0 .45-.022.528-.332l.073.018a6.399 6.399 0 0 0-.088.434c-.167 0-.466-.01-.7-.01-.234 0-.543.01-.692.01v-.082"/>
        <path fill="#1A1919" d="M13.35 20.41c-.166 0-.465-.01-.699-.01-.234 0-.543.01-.692.01h-.01v-.105h.047c.094-.001.18-.01.18-.143v-1.43c0-.132-.086-.141-.18-.143h-.048v-.106h.011c.16 0 .43.011.648.011.218 0 .488-.01.665-.01h.012v.012a4.51 4.51 0 0 0 .005.416v.01l-.009.002-.091.025v-.014c-.016-.177-.039-.305-.306-.308h-.35l-.001.69h.298c.15 0 .177-.081.195-.228v-.011h.1v.012a6.766 6.766 0 0 0 0 .63v.01l-.009.001-.09.02-.001-.013c-.018-.167-.02-.258-.192-.26h-.3v.623c0 .166.136.165.305.166.313-.002.439-.018.517-.324l.003-.01.01.001.084.023-.002.011a6.487 6.487 0 0 0-.088.433l-.002.01h-.01zm-.009-.023c.023-.138.052-.276.084-.413l-.051-.013c-.078.305-.229.332-.536.33-.164 0-.327 0-.328-.19v-.646h.323c.182-.002.2.112.213.267l.056-.012a6.059 6.059 0 0 1 0-.609h-.056c-.015.143-.057.242-.216.24h-.32v-.738h.373c.27-.002.315.145.327.316l.056-.016a4.815 4.815 0 0 1-.005-.396c-.177 0-.44.01-.654.01-.214 0-.477-.01-.636-.01v.058h.025c.092 0 .203.017.204.168v1.429c0 .15-.112.167-.204.168h-.025v.057c.151 0 .452-.01.68-.01.23 0 .522.01.69.01zM13.79 18.784c0-.199-.104-.207-.185-.207h-.047v-.082c.084 0 .245.011.404.011.155 0 .28-.01.418-.01.327 0 .62.092.62.48 0 .245-.157.394-.362.48l.444.697c.073.116.125.148.253.164v.082c-.086 0-.17-.01-.255-.01-.08 0-.164.01-.245.01-.2-.275-.372-.57-.54-.884h-.172v.584c0 .21.093.218.213.218h.047v.082c-.149 0-.299-.01-.448-.01-.124 0-.247.01-.377.01v-.082h.047c.097 0 .185-.046.185-.147v-1.386zm.333.633h.127c.26 0 .4-.104.4-.426 0-.242-.148-.398-.38-.398-.077 0-.11.009-.147.011v.813z"/>
        <path fill="#1A1919" d="M15.335 20.41c-.088 0-.17-.01-.256-.01-.08 0-.162.01-.253.006a7.68 7.68 0 0 1-.538-.879h-.154v.572c.003.205.081.203.202.206h.058v.106h-.012c-.148 0-.3-.011-.447-.011-.124 0-.246.01-.377.01h-.011v-.105h.058c.094 0 .173-.043.173-.135v-1.386c-.002-.193-.092-.192-.173-.195h-.058v-.106h.011c.084 0 .245.011.404.011.155 0 .28-.01.418-.01.328 0 .63.095.63.491 0 .246-.155.4-.355.486l.437.686c.072.113.118.141.244.158l.01.002v.104h-.011zm-1.212-.907h.178l.003.006c.17.314.34.608.531.878.08 0 .163-.01.244-.01.083 0 .163.009.244.01v-.06c-.122-.015-.179-.054-.25-.167l-.453-.71.013-.005c.204-.085.355-.23.355-.47 0-.378-.28-.466-.608-.468-.137 0-.262.011-.418.011-.153 0-.308-.01-.393-.011v.058h.036c.081 0 .196.014.196.22v1.385c0 .11-.098.16-.196.16h-.036v.057c.125 0 .244-.01.366-.01.146 0 .292.01.436.01v-.057h-.035c-.119 0-.225-.016-.225-.231v-.596h.012zm0-.075h-.012v-.835h.01c.036-.003.071-.01.15-.01.236 0 .39.16.39.41 0 .325-.149.435-.411.435h-.127zm.127-.023c.257-.002.387-.096.39-.413-.002-.238-.143-.386-.37-.387-.07 0-.103.007-.136.01v.79h.116zM17.1 19.861l.005-.005v-1.022c0-.224-.148-.257-.226-.257h-.057v-.082c.122 0 .241.011.364.011.107 0 .213-.01.32-.01v.081h-.04c-.108 0-.23.022-.23.346v1.241c0 .096.002.191.015.276h-.099l-1.339-1.566v1.124c0 .238.044.319.244.319h.045v.082c-.112 0-.224-.01-.336-.01-.117 0-.237.01-.354.01v-.082h.037c.18 0 .234-.128.234-.346v-1.149a.239.239 0 0 0-.237-.245h-.034v-.082c.099 0 .201.011.3.011.077 0 .153-.01.23-.01L17.1 19.86"/>
        <path fill="#1A1919" d="M17.25 20.451l-.106-.003-1.32-1.543v1.093c.003.238.037.305.233.307h.055v.106h-.01c-.113 0-.225-.012-.336-.012-.116 0-.237.012-.354.012h-.011v-.106h.048c.171 0 .22-.117.222-.334v-1.149a.227.227 0 0 0-.225-.233h-.045v-.106h.011c.1 0 .201.011.3.011.076 0 .151-.01.238-.007l1.144 1.35v-1.003c-.001-.217-.14-.244-.215-.245h-.069v-.106h.012c.122 0 .242.011.364.011.106 0 .212-.01.32-.01h.011v.105h-.05c-.107.003-.218.013-.22.334v1.241c0 .096.002.19.015.274l.001.013h-.012zm-.098-.023h.086a1.952 1.952 0 0 1-.014-.264v-1.24c0-.328.132-.358.243-.359h.027v-.058c-.102 0-.205.01-.308.01-.12 0-.235-.01-.353-.01v.058h.046c.08 0 .238.038.238.269l-.004 1.03-.005.006-.008.009-1.157-1.372c-.077 0-.153.01-.231.01-.097 0-.194-.01-.289-.01v.058h.023a.25.25 0 0 1 .248.257v1.149c0 .218-.059.358-.245.359h-.026v.057c.113 0 .229-.01.343-.01.109 0 .217.01.324.01v-.057h-.033c-.204 0-.255-.094-.256-.332v-1.154l1.351 1.584zm-.052-.567l.009-.007-.01.007zm-.006-.005l-.002-.003.002.003zM17.924 20.01c-.026.091-.057.163-.057.212 0 .082.11.095.195.095h.029v.082a4.48 4.48 0 0 0-.596 0v-.082h.016c.1 0 .187-.063.226-.177l.416-1.252c.034-.1.08-.237.096-.338.083-.03.188-.084.237-.118.008-.002.013-.005.02-.005.008 0 .013 0 .019.008l.023.068.479 1.427c.031.095.062.196.095.278.032.077.087.11.173.11h.015v.081a7.049 7.049 0 0 0-.749 0v-.082h.029c.06 0 .161-.01.161-.079a.91.91 0 0 0-.052-.197l-.102-.316h-.59l-.083.284zm.38-1.21h-.006l-.241.773h.486l-.24-.772z"/>
        <path fill="#1A1919" d="M19.31 20.41c-.117-.005-.235-.01-.358-.01-.128 0-.258.005-.39.01l-.012.001v-.106h.04c.06 0 .15-.014.15-.067a.905.905 0 0 0-.052-.192l-.099-.309h-.573l-.081.276c-.027.092-.058.164-.058.209.001.066.098.083.185.083h.04v.106h-.012c-.104-.006-.21-.012-.314-.012-.093 0-.187.006-.28.012h-.012v-.106h.027c.096 0 .177-.058.215-.17l.416-1.251c.034-.1.08-.237.103-.346.082-.029.187-.084.236-.117.008-.002.015-.006.025-.006.007 0 .02.002.03.016l.023.069.479 1.426c.03.096.061.196.095.277.03.073.078.102.162.102h.026v.106h-.011zm-.738-.024c.13-.004.255-.01.38-.01.12 0 .234.006.347.01v-.057h-.004c-.09 0-.15-.036-.183-.116-.033-.083-.065-.184-.096-.28l-.479-1.426-.022-.065c-.002-.003-.002-.003-.004-.003h-.005l-.015.003a.942.942 0 0 1-.231.11c-.016.103-.063.239-.097.34l-.416 1.252c-.04.118-.13.186-.236.185h-.005v.057c.09-.004.18-.01.27-.01.1 0 .203.006.302.01v-.057h-.016c-.085 0-.204-.01-.207-.107 0-.054.033-.124.058-.216l.011.003-.011-.004.086-.291h.606l.104.324a.86.86 0 0 1 .053.2c-.004.084-.113.09-.172.091h-.018v.057zm-.531-.802l.249-.795h.014v.012H18.3h.003v-.012h.008l.247.795h-.518zm.031-.023h.455l-.226-.731-.229.73zm.22-.757l.007-.002-.007.002zM19.425 18.632c-.195 0-.203.049-.242.248h-.079c.01-.077.024-.153.032-.232.01-.077.015-.153.015-.232h.063c.02.082.086.08.156.08h1.342c.07 0 .135-.003.14-.085l.062.01c-.01.074-.02.148-.028.222-.006.073-.006.147-.006.22l-.077.03c-.005-.1-.018-.261-.193-.261h-.426v1.45c0 .211.09.235.216.235h.05v.082c-.102 0-.284-.01-.425-.01-.156 0-.338.01-.44.01v-.082h.05c.143 0 .216-.013.216-.229v-1.456h-.426"/>
        <path fill="#1A1919" d="M20.45 20.41c-.103 0-.285-.01-.425-.01-.155 0-.337.01-.44.01h-.01v-.105h.06c.144-.003.201-.005.204-.217v-1.445h-.414v-.024h.437v1.47c0 .218-.084.24-.227.24h-.038v.058c.103 0 .277-.01.428-.01.136 0 .31.01.413.01v-.058h-.039c-.125 0-.226-.032-.226-.246v-1.464h.437c.175.001.198.157.203.258l.056-.022c0-.07 0-.142.006-.214.007-.07.017-.14.026-.21l-.04-.006c-.011.079-.084.083-.15.082h-1.355c-.06 0-.127-.003-.15-.08h-.043c0 .076-.006.15-.016.222-.007.076-.02.148-.03.22h.056c.034-.19.057-.253.252-.25v.024c-.193.004-.189.038-.231.24l-.002.009h-.1v-.014c.012-.076.025-.153.032-.232.01-.076.016-.151.016-.23v-.012h.082l.002.009c.019.069.066.07.132.07h1.356c.072 0 .124-.002.129-.073v-.013l.012.002.074.013-.002.012c-.01.073-.02.146-.028.22-.005.072-.005.146-.005.22v.008l-.008.003-.092.035v-.016c-.007-.102-.017-.25-.182-.25h-.415v1.439c.003.205.08.22.204.222h.061v.106h-.01M21.01 20.317h.037c.093 0 .192-.013.192-.155v-1.43c0-.141-.099-.155-.192-.155h-.037v-.082c.102 0 .258.011.385.011.13 0 .286-.01.409-.01v.081h-.037c-.094 0-.193.014-.193.156v1.429c0 .142.1.155.193.155h.037v.082c-.125 0-.281-.01-.411-.01-.128 0-.281.01-.383.01v-.082"/>
        <path fill="#1A1919" d="M21.986 20.41c-.154 0-.345-.01-.504-.01-.156 0-.345.01-.47.01H21v-.105h.059c.115-.001.22-.01.221-.143v-1.43c0-.132-.106-.141-.221-.143h-.059v-.106h.014c.124 0 .316.011.471.011.16 0 .35-.01.502-.01h.013v.105h-.058c-.116.002-.221.01-.222.144v1.429c0 .133.106.142.222.143H22v.106h-.013zm-.015-.023v-.058h-.03c-.114 0-.25-.017-.25-.167v-1.43c0-.15.136-.167.25-.167h.03v-.058c-.147 0-.331.01-.487.01-.151 0-.333-.01-.457-.01v.058h.03c.114 0 .25.017.25.168v1.429c0 .15-.136.167-.25.167h-.03v.058c.123-.001.303-.01.455-.01.155 0 .339.01.49.01z"/>
        <path fill="#1A1919" d="M22.84 18.454c.555 0 .997.36.997.942 0 .627-.43 1.044-.983 1.044-.551 0-.973-.393-.973-.98 0-.566.419-1.006.96-1.006m.039 1.866c.505 0 .593-.467.593-.864 0-.4-.205-.882-.637-.882-.455 0-.59.426-.59.791 0 .488.213.955.634.955"/>
        <path fill="#1A1919" d="M21.87 19.46c0-.573.424-1.017.97-1.018v.024c-.534 0-.948.434-.948.995 0 .58.416.966.962.967.548 0 .971-.411.972-1.033 0-.573-.435-.928-.985-.929v-.024c.558.001 1.006.365 1.007.953 0 .634-.435 1.055-.994 1.056-.556 0-.983-.397-.984-.99m.364-.096c0-.367.137-.803.602-.803.441.001.647.493.648.894 0 .397-.09.875-.604.875v-.023c.495 0 .58-.455.581-.852 0-.396-.203-.869-.625-.87-.446 0-.578.416-.58.78 0 .485.212.941.624.942v.023c-.432 0-.645-.475-.646-.966M25.59 19.861l.005-.005v-1.022c0-.224-.149-.257-.227-.257h-.057v-.082c.122 0 .242.011.364.011.107 0 .214-.01.32-.01v.081h-.039c-.109 0-.231.022-.231.346v1.241c0 .096.002.191.015.276h-.098l-1.34-1.566v1.124c0 .238.044.319.244.319h.045v.082c-.112 0-.224-.01-.336-.01-.117 0-.236.01-.353.01v-.082h.036c.18 0 .234-.128.234-.346v-1.149a.238.238 0 0 0-.237-.245h-.033v-.082c.098 0 .2.011.299.011.078 0 .153-.01.231-.01l1.157 1.365"/>
        <path fill="#1A1919" d="M25.74 20.451l-.107-.003-1.32-1.543v1.093c.003.238.038.304.233.307h.056v.106h-.011c-.113 0-.224-.011-.336-.011-.116 0-.236.01-.354.01h-.01v-.105h.047c.171 0 .22-.117.223-.334v-1.149a.227.227 0 0 0-.226-.233h-.044v-.106h.01c.1 0 .201.011.3.011.077 0 .152-.01.24-.006l1.142 1.349v-1.003c0-.217-.139-.243-.215-.245H25.3v-.106h.011c.123 0 .243.011.364.011.106 0 .212-.01.32-.01h.011v.105h-.05c-.107.003-.218.013-.22.334v1.241c0 .096.002.191.015.274l.002.013h-.012zm-.098-.023h.085a2.024 2.024 0 0 1-.014-.264v-1.24c0-.328.132-.358.243-.359h.028v-.058c-.103 0-.205.01-.31.01-.118 0-.234-.01-.352-.01v.058h.046c.08 0 .237.038.237.269l-.002 1.03-.005.006-.009.009-1.157-1.372c-.077 0-.153.01-.231.01-.096 0-.194-.01-.289-.01v.058h.023c.123 0 .248.097.248.257v1.15c0 .217-.058.357-.245.358h-.026v.057c.113 0 .23-.01.343-.01.109 0 .217.01.325.01v-.057h-.034c-.204 0-.255-.094-.255-.332v-1.154l1.35 1.584zm-.053-.567l.009-.007-.009.007zm-.006-.005l-.002-.003.002.003zM26.413 20.01c-.025.091-.057.163-.057.212 0 .082.11.095.195.095h.03v.082a4.452 4.452 0 0 0-.595 0l-.001-.082h.014c.102 0 .189-.063.227-.177l.417-1.252c.033-.1.08-.237.095-.338a1.31 1.31 0 0 0 .238-.118c.007-.002.012-.005.02-.005s.013 0 .018.008l.024.068.478 1.427c.031.095.062.196.096.278.032.077.086.11.172.11h.016v.081a7.052 7.052 0 0 0-.75 0v-.082h.03c.059 0 .16-.01.16-.079a.907.907 0 0 0-.052-.197l-.101-.316h-.59l-.084.284zm.38-1.21h-.005l-.242.773h.487l-.24-.772z"/>
        <path fill="#1A1919" d="M27.799 20.41c-.118-.004-.234-.01-.358-.01-.127 0-.258.006-.39.01l-.012.001v-.106h.04c.06 0 .15-.014.15-.067a.881.881 0 0 0-.052-.192l-.099-.309h-.574l-.08.276c-.026.093-.057.164-.057.209 0 .066.098.083.184.083h.04v.106h-.012c-.104-.005-.21-.011-.314-.011-.093 0-.186.006-.28.01l-.012.001v-.106H26c.097 0 .179-.058.217-.17l.416-1.251c.033-.1.08-.237.103-.345a1.39 1.39 0 0 0 .236-.118c.007-.002.014-.006.025-.006.007 0 .02.002.028.016l.024.069.479 1.426c.03.096.062.196.096.278.03.072.077.1.16.101h.027v.106H27.8zm-.737-.023c.128-.005.255-.01.379-.01.12 0 .234.005.347.01v-.058h-.004c-.089 0-.15-.036-.182-.116-.035-.083-.066-.184-.097-.28l-.478-1.426a2.786 2.786 0 0 1-.022-.065c-.002-.003-.002-.003-.004-.003h-.005c-.006 0-.008.002-.015.004a.977.977 0 0 1-.231.108c-.016.104-.064.24-.097.341l-.417 1.252c-.04.118-.13.186-.237.185h-.003v.057c.09-.004.179-.01.27-.01.1 0 .203.006.303.01v-.057h-.018c-.085 0-.203-.01-.207-.107.001-.054.033-.124.059-.216l.01.003-.01-.004.085-.291h.606l.105.324c.028.088.052.16.052.2-.004.084-.113.09-.172.091h-.017v.058zm-.532-.803l.25-.795h.013v.012h-.003.003v-.012h.008l.246.795h-.517zm.032-.023h.455l-.227-.73-.228.73zm.22-.757l.006-.002-.005.002zM28.455 20.132c0 .11.072.141.156.153.106.008.223.008.343-.006a.367.367 0 0 0 .25-.147.642.642 0 0 0 .08-.197h.075c-.028.156-.065.309-.096.464-.228 0-.458-.01-.686-.01-.23 0-.458.01-.687.01v-.082h.036c.094 0 .196-.013.196-.182v-1.402c0-.142-.102-.156-.196-.156h-.036v-.082c.138 0 .273.011.411.011.133 0 .263-.01.396-.01v.081h-.066c-.099 0-.176.003-.176.148v1.407"/>
        <path fill="#1A1919" d="M29.263 20.41c-.229 0-.458-.01-.686-.01-.229 0-.458.01-.687.01h-.011v-.105h.047c.094-.002.184-.009.185-.17v-1.403c-.001-.132-.09-.141-.185-.143h-.047v-.106h.01c.14 0 .275.011.412.011.132 0 .262-.01.396-.01h.01v.105h-.076c-.1.003-.163-.002-.165.136v1.407c0 .102.064.129.145.14a2.012 2.012 0 0 0 .341-.005.36.36 0 0 0 .242-.142.63.63 0 0 0 .079-.192l.002-.01h.098l-.002.015c-.03.156-.065.308-.097.463l-.002.01h-.009zm-.01-.023c.03-.148.065-.293.093-.44h-.054a.633.633 0 0 1-.08.192.383.383 0 0 1-.257.152 1.904 1.904 0 0 1-.346.005c-.084-.01-.166-.048-.166-.164v-1.407c0-.152.091-.16.188-.16h.054v-.058c-.128 0-.255.011-.384.011-.135 0-.266-.01-.4-.011v.058h.025c.093 0 .207.017.207.167v1.403c0 .176-.113.194-.207.194h-.024v.058c.224 0 .45-.01.675-.01.226 0 .452.01.677.01zM29.554 18.418a.5.5 0 0 1 .5.516c0 .29-.214.514-.5.514a.497.497 0 0 1-.5-.514.5.5 0 0 1 .5-.516zm0 .934c.224 0 .395-.196.395-.418 0-.222-.169-.42-.395-.42-.225 0-.396.198-.396.42 0 .222.17.418.396.418zm-.249-.146v-.025c.061-.009.073-.007.073-.046v-.382c0-.054-.005-.072-.07-.07v-.025h.255c.088 0 .17.043.17.137a.16.16 0 0 1-.12.155l.083.118a.54.54 0 0 0 .11.122v.016h-.097c-.047 0-.088-.101-.18-.237h-.055v.171c0 .034.011.032.073.041v.025h-.242zm.169-.272h.059c.064 0 .094-.05.094-.131 0-.082-.046-.111-.097-.111h-.056v.242z"/>
        <path fill="#FFFFFE" d="M13.085 8.867c0-2.551 1.972-4.62 4.404-4.62 2.433 0 4.405 2.069 4.405 4.62 0 2.55-1.972 4.619-4.405 4.619-2.432 0-4.404-2.068-4.404-4.62"/>
        <path fill="#0069AA" d="M20.153 8.776c-.002-1.183-.707-2.192-1.7-2.591v5.182c.993-.4 1.698-1.408 1.7-2.591zm-3.595 2.59v-5.18c-.993.4-1.697 1.407-1.7 2.59.003 1.182.707 2.19 1.7 2.59zm.948-6.97c-2.307 0-4.176 1.96-4.176 4.38 0 2.419 1.869 4.378 4.176 4.379 2.306 0 4.175-1.96 4.176-4.38 0-2.418-1.87-4.378-4.176-4.38zm-.01 9.172c-2.525.013-4.602-2.132-4.602-4.742 0-2.853 2.077-4.827 4.601-4.826h1.183a4.766 4.766 0 0 1 4.77 4.826c0 2.61-2.276 4.742-4.77 4.742h-1.183z"/>
    </g>
</svg>
