<svg xmlns="http://www.w3.org/2000/svg" width="36" height="24" viewBox="0 0 36 24">
    <g fill="none" fill-rule="evenodd">
        <rect width="36" height="24" fill="#FFF" rx="4"/>
        <path fill="#54B230" d="M24.055 11.554H25.709a.97.97 0 0 1 .136.01.803.803 0 0 1 .044.008l.011.002a.688.688 0 0 1 .191.072.728.728 0 0 1 .356.462.736.736 0 0 1-.164.65.718.718 0 0 1-.383.22l-.01.003a.358.358 0 0 1-.045.007 1.197 1.197 0 0 1-.136.011H24.055v-1.445zm2.2-1.637a.696.696 0 0 1-.082.507.64.64 0 0 1-.3.252.7.7 0 0 1-.164.049l-.007.001a.467.467 0 0 1-.075.008 1.468 1.468 0 0 1-.082.004H24.055V9.404H25.572a1.206 1.206 0 0 1 .13.012l.007.001a.706.706 0 0 1 .492.35.628.628 0 0 1 .054.15zM29.645 3h.011v13.7a2.682 2.682 0 0 1-.558 1.634l-.027.035a2.88 2.88 0 0 1-.082.098l-.028.031a2.88 2.88 0 0 1-.082.088l-.027.027-.027.027-.028.026-.027.025a2.863 2.863 0 0 1-.164.14l-.027.02-.028.021-.027.02-.027.02-.028.02-.027.018-.027.018-.028.018-.027.017a2.66 2.66 0 0 1-.082.05l-.027.015-.028.015-.027.015-.027.015-.028.014-.027.014-.027.013-.028.013-.027.013-.027.012-.028.012-.027.012-.027.011-.028.01-.027.012-.027.01-.028.01-.027.01-.027.009-.028.01-.027.008-.027.008-.028.009-.027.007-.027.008-.028.007-.027.007-.027.007-.028.007-.027.006-.027.006-.028.005-.027.006-.027.005-.028.005-.027.004-.027.005-.028.003-.027.004-.027.004-.028.003-.027.003c-.01 0-.018.002-.027.003l-.028.002-.027.002-.027.002-.028.002-.027.002h-.027l-.028.002h-.082l-.005.001H22.67v-5.586H27.103l.027-.001h.027l.028-.002.027-.001.027-.002.028-.002.027-.002.027-.002.028-.003.027-.003.027-.003.028-.003.027-.004.027-.004.028-.005.027-.005.027-.005.028-.005.027-.006.027-.006.028-.006a2.15 2.15 0 0 0 .11-.03l.026-.008a1.793 1.793 0 0 0 .082-.027l.028-.01.027-.01.027-.011a1.77 1.77 0 0 0 .465-.281 1.372 1.372 0 0 0 .246-.289 1.164 1.164 0 0 0 .164-.457 1.282 1.282 0 0 0 0-.348 1.13 1.13 0 0 0-.246-.554 1.23 1.23 0 0 0-.246-.23 1.63 1.63 0 0 0-.383-.208l-.027-.01a2.109 2.109 0 0 0-.027-.01l-.028-.01a2.475 2.475 0 0 0-.109-.035l-.027-.008a2.163 2.163 0 0 0-.164-.04l-.028-.005-.027-.005-.027-.004a2.148 2.148 0 0 0-.028-.005l-.027-.004a2.213 2.213 0 0 0-.027-.004l-.028-.003-.027-.004-.027-.003-.028-.003-.027-.002-.027-.002-.026-.002v-.032l.026-.004.027-.004.027-.005.028-.005a2 2 0 0 0 .027-.005l.027-.006.028-.006.027-.007a1.975 1.975 0 0 0 .355-.127 1.65 1.65 0 0 0 .246-.15 1.315 1.315 0 0 0 .246-.249 1.187 1.187 0 0 0 .164-.312 1.138 1.138 0 0 0 .062-.378 1.3 1.3 0 0 0-.034-.292 1.105 1.105 0 0 0-.52-.697 1.407 1.407 0 0 0-.246-.126 2.012 2.012 0 0 0-.19-.067l-.028-.008a2.066 2.066 0 0 0-.055-.014l-.027-.007a2.064 2.064 0 0 0-.055-.012l-.027-.006-.028-.005-.027-.005-.027-.005-.028-.004-.027-.004-.027-.004-.028-.004-.027-.003-.027-.003-.028-.002-.027-.002-.027-.003-.028-.001-.027-.002h-.01l-.017-.001-.028-.002-.027-.002h-.027l-.028-.002-.027-.001-.027-.001-.028-.001h-.027l-.027-.001H22.67V5.74a2.666 2.666 0 0 1 .496-1.55l.028-.037.027-.037.027-.035.028-.034.027-.033a2.49 2.49 0 0 1 .055-.064l.027-.03.027-.029a2.978 2.978 0 0 1 .11-.11l.027-.025.027-.025.028-.024.027-.023.027-.024a2.918 2.918 0 0 1 .082-.065l.028-.02.027-.021a2.95 2.95 0 0 1 .055-.04l.027-.018a2.55 2.55 0 0 1 .027-.018l.028-.018.027-.018a2.68 2.68 0 0 1 .027-.017l.028-.016.027-.017.027-.015.028-.016.027-.014.027-.015.028-.014.027-.014.027-.014.028-.013.027-.013.027-.012.028-.012.027-.012.027-.011.028-.011.027-.011.027-.01.028-.01.027-.01.027-.01.028-.009.027-.009.027-.008.028-.009.027-.008.028-.007.027-.008.027-.007.028-.007.027-.006.027-.007.028-.005.027-.006.027-.006.028-.005.027-.005.027-.004.028-.005c.009 0 .018-.002.027-.004l.027-.003.028-.004.027-.003.027-.003.028-.003.027-.003.027-.002.028-.002.027-.002.027-.001.028-.001.027-.001.027-.001h.055L25.497 3H29.645z"/>
        <path fill="#006CB9" d="M7 12.508V5.74a2.666 2.666 0 0 1 .495-1.548l.027-.038.028-.036.027-.035.027-.035c.01-.01.018-.022.028-.033a2.652 2.652 0 0 1 .054-.063l.028-.03.027-.03.027-.028a2.669 2.669 0 0 1 .055-.055l.027-.026.027-.026.027-.024.028-.025.027-.023.027-.023.028-.022a2.61 2.61 0 0 1 .136-.104l.027-.02a2.59 2.59 0 0 1 .11-.072l.027-.017.027-.017.027-.016.028-.016.027-.015.027-.015.028-.015.027-.014.027-.014a2.84 2.84 0 0 1 .027-.013l.028-.013.027-.013.027-.013.028-.012.027-.011.027-.012.027-.01.028-.012.027-.01.027-.01.028-.01.027-.01.027-.009.027-.009.028-.008.027-.009.027-.007.028-.008.027-.008.027-.007.027-.007.028-.006.027-.007.027-.005.028-.006.027-.006.027-.005.027-.005.028-.004.027-.005.027-.004.028-.004.027-.004.027-.003.027-.003c.01 0 .019-.002.028-.003l.027-.002.027-.003.028-.002.027-.001.027-.002.027-.001.028-.001L9.76 3h.055L9.842 3H13.985v13.7a2.68 2.68 0 0 1-.623 1.716c-.01.01-.018.022-.027.033l-.028.03-.027.031-.027.03-.028.028-.027.029a2.837 2.837 0 0 1-.082.079l-.027.025-.027.024-.028.024-.027.023-.027.023-.027.022-.028.021-.027.021-.027.02-.028.02-.027.02-.027.02c-.01.005-.018.011-.027.017l-.028.019-.027.017-.027.017-.028.017-.027.016-.027.016-.027.016-.028.015a2.488 2.488 0 0 1-.054.029l-.028.014-.027.013c-.009.005-.018.01-.027.013l-.027.014-.028.012-.027.012-.027.012-.028.011-.027.012-.027.01-.027.011-.028.01-.027.01-.027.01-.028.009-.027.01-.027.008-.027.008-.028.008-.027.008-.027.007-.028.008-.027.007-.027.006-.027.007-.028.006-.027.005-.027.006-.028.005-.027.005-.027.005-.027.004-.028.005-.027.004-.027.003-.028.004-.027.003-.027.003-.027.002-.028.003-.027.002-.027.002-.028.001-.027.002h-.027l-.028.002h-.054l-.025.001H7v-5.775l.059.015.027.007.027.006.027.006.028.007.027.006.027.006.028.006.027.006.027.005.027.006.028.006.027.005.027.006.028.005.027.006.027.005.027.005.028.005.027.005.027.005.028.005.027.005.027.005.028.005.027.004.027.005.027.005.028.004.027.005.027.004.027.004.028.005.027.004.027.004.028.004.027.004.027.004.028.004.027.004.027.004.027.003.028.004.027.004.027.003.028.004.027.003.027.004.027.003.028.003.027.004.027.003.028.003.027.003.027.003.027.003.028.003.027.003.027.002.028.003.027.003.027.002.027.003.028.003.027.002.027.002.028.003.027.002.027.002.027.002.028.002.027.002.027.002.028.002.027.002.027.002.027.002.028.001.027.002.027.002.028.001.027.002.027.001.027.001.028.002h.027l.027.002.028.001.027.001.027.001.027.001.028.001h.027l.027.002h.055l.027.001h.027l.028.001h.054l.028.001h.245l.027-.001h.028l.027-.001h.027l.028-.002h.027L10.25 14l.027-.001.028-.001.027-.001.027-.002h.028l.027-.002.027-.002.027-.001.028-.002.027-.002.027-.001.028-.002.027-.002.027-.002.027-.003.028-.002.027-.002.027-.003.028-.002.027-.003.027-.003.027-.003.028-.003.027-.003.027-.003.028-.003.027-.004.027-.003.027-.004.028-.004.027-.004.027-.004.028-.004.027-.005.027-.004.027-.004.028-.005.027-.005.027-.005.028-.005.027-.006.027-.005.028-.006.027-.006.027-.006.027-.006.028-.006.027-.007.027-.006.028-.007.027-.007.027-.007.027-.008.028-.007.027-.008.027-.008.028-.008.027-.009.027-.008.027-.01.028-.008.027-.01.027-.01.028-.01.027-.01.027-.01.027-.01.028-.012.027-.01.027-.013.028-.012.027-.012.027-.013.027-.012.028-.014.027-.014c.01-.004.018-.009.027-.014a2.61 2.61 0 0 0 .082-.045l.027-.016.028-.016.027-.017.027-.017.028-.018.027-.019.027-.019.027-.02a2.013 2.013 0 0 0 .082-.064l.028-.022.027-.024.027-.025a1.765 1.765 0 0 0 .055-.052l.027-.028.027-.03a1.724 1.724 0 0 0 .382-.67 1.977 1.977 0 0 0 .082-.412c.01-.09.014-.18.014-.273v-3.18h-2.415l-.02 3.18a1.619 1.619 0 0 1-.035.326 1.377 1.377 0 0 1-.136.362 1.227 1.227 0 0 1-.682.561 1.649 1.649 0 0 1-.137.043l-.027.007a1.703 1.703 0 0 1-.164.033l-.027.004a2.094 2.094 0 0 1-.055.007l-.027.003-.027.003-.027.002a2.158 2.158 0 0 1-.055.003l-.027.002h-.028l-.027.001h-.136l-.028-.001-.027-.001-.027-.001-.027-.002h-.028l-.027-.002-.027-.002-.028-.002-.027-.002-.027-.002-.027-.003-.028-.002-.027-.003-.027-.003-.028-.003-.027-.003-.027-.003-.027-.004-.028-.003-.027-.004-.027-.004-.028-.004-.027-.005-.027-.004-.027-.005-.028-.004-.027-.005-.027-.005-.028-.006-.027-.005-.027-.005-.027-.006-.028-.006-.027-.006L8.396 13l-.028-.006-.027-.007-.027-.006-.027-.007-.028-.007-.027-.007-.027-.007-.028-.007-.027-.007-.027-.008-.027-.008-.028-.007-.027-.008-.027-.008-.028-.009-.027-.008-.027-.008-.028-.01-.027-.008-.027-.009-.027-.009-.028-.009-.027-.01-.027-.009-.027-.01-.028-.009-.027-.01-.027-.01-.028-.01-.027-.01-.027-.01-.028-.01-.027-.011-.027-.011-.027-.01-.028-.012-.027-.011-.027-.011-.028-.011-.027-.012-.027-.011-.027-.012-.028-.012-.027-.012-.027-.012-.028-.012-.027-.012-.027-.013-.027-.012L7 12.508z"/>
        <path fill="#E10238" d="M14.894 9.28a2.55 2.55 0 0 0-.059.048V5.74a2.666 2.666 0 0 1 .495-1.548l.028-.038.027-.036.027-.035.028-.035.027-.032a2.685 2.685 0 0 1 .054-.064l.028-.03.027-.03a2.727 2.727 0 0 1 .082-.082l.027-.026.027-.026.028-.025.027-.024.027-.024.028-.023.027-.022a3.268 3.268 0 0 1 .245-.179 2.847 2.847 0 0 1 .055-.034l.027-.017.028-.016.027-.016.027-.015.027-.015.028-.015.027-.014c.01-.004.018-.01.027-.014l.028-.013.027-.013.027-.013.027-.012.028-.013.027-.011.027-.012.028-.01.027-.012.027-.01.027-.01.028-.01.027-.01.027-.009.028-.009.027-.008.027-.009.028-.007.027-.008.027-.008.027-.007.028-.007.027-.006.027-.007.028-.005.027-.006.027-.006.027-.005.028-.005.027-.004.027-.005.028-.004.027-.004.027-.003.027-.004.028-.003.027-.003.027-.002.028-.003.027-.002.027-.001.027-.002.028-.001.027-.001.027-.001h.055L17.662 3H21.82v13.7a2.676 2.676 0 0 1-.46 1.498l-.027.04a2.866 2.866 0 0 1-.137.178l-.027.032-.027.032-.028.03-.027.03-.027.028-.027.028-.028.027a2.777 2.777 0 0 1-.054.053l-.028.025-.027.024-.027.024-.027.023-.028.023-.027.022-.027.021-.028.021-.027.02-.027.02-.027.02-.028.019-.027.018-.027.019-.028.017-.027.017-.027.017-.027.016-.028.016-.027.016-.027.015-.028.014-.027.015-.027.014-.027.013-.028.013c-.009.005-.018.01-.027.013l-.027.013-.028.012-.027.012-.027.011-.027.012-.028.01-.027.011-.027.01-.028.01-.027.01-.027.009-.027.009-.028.009-.027.008-.027.008-.028.008-.027.007-.027.008-.027.007-.028.006-.027.007-.027.006-.028.005-.027.006-.027.005-.028.005-.027.005-.027.004-.027.005-.028.004-.027.003-.027.004c-.01 0-.018.002-.028.003l-.027.003-.027.002-.027.003-.028.002-.027.002-.027.001-.028.002h-.027l-.027.002h-.055l-.025.001H14.835v-6.327a2.61 2.61 0 0 0 .113.089l.028.02.027.02a2.8 2.8 0 0 0 .055.037l.027.018.027.018.027.017.028.017.027.016.027.016.028.016.027.015.027.015.027.015.028.014.027.014.027.014.028.013.027.013.027.013.027.013.028.012.027.012.027.012.028.011.027.011.027.011.027.011.028.01.027.011.027.01.028.01.027.01.027.01.027.009.028.009.027.009.027.009.028.008.027.008.027.009.027.008.028.007.027.008.027.008.028.007.027.007.027.007.027.007.028.007.027.007.027.006.028.006.027.006.027.007.027.005.028.006.027.006.027.005.028.006.027.005.027.005.027.005.028.005.027.005.027.004.028.005.027.004.027.005.028.004.027.004.027.004.027.004.028.003.027.004.027.004.028.003.027.004.027.003.027.003.028.003.027.003.027.003.028.003.027.002.027.003.027.003.028.002.027.002.027.003.028.002.027.002.027.002.027.002.028.002.027.001.027.002.028.002.027.001.027.002.027.001.028.001.027.002h.027l.028.002h.027l.027.002h.027l.028.001.027.001h.027l.028.001h.027l.027.001h.027l.028.001H18.44l.028-.001.027-.001h.027l.027-.001h.028l.027-.002h.027L18.66 14l.027-.001.027-.001.027-.001.028-.001.027-.002h.027l.028-.002.027-.001.027-.002.027-.001.028-.002.027-.002.027-.002.028-.002.027-.002.027-.002.027-.002.028-.002.027-.002.027-.003.028-.002.027-.003.027-.002.027-.003.028-.003.027-.003.027-.003.028-.003.027-.003.027-.003.027-.003.028-.003.027-.004.027-.003.028-.003.027-.004.027-.003.028-.004.027-.004.027-.003.027-.004.028-.004.027-.004.027-.004.028-.004.027-.004.027-.004.027-.004.028-.005.027-.004.027-.004.028-.005.027-.004.027-.005.027-.004.028-.005.027-.005.027-.004.028-.005.027-.005.027-.005.027-.005.028-.005.027-.005.027-.005.028-.005.027-.005.027-.006.027-.005.028-.005.027-.006.027-.005.028-.006.027-.005.027-.006.027-.005.028-.006.027-.006.027-.006.028-.006.027-.006.027-.006.027-.006.028-.006.027-.006.027-.007.027-.006v-1.16l-.027.014-.027.013-.027.013-.028.013-.027.012-.027.013-.027.012-.028.013-.027.012-.027.012-.028.012-.027.011-.027.012-.027.012-.028.01-.027.012-.027.011-.028.011-.027.011-.027.01-.027.011-.028.01-.027.01-.027.01-.028.01-.027.01-.027.01-.027.01-.028.009-.027.01-.027.008-.028.009-.027.009-.027.008-.027.009-.028.008-.027.008-.027.008-.028.008-.027.008-.027.007-.027.008-.028.007-.027.007-.027.007-.028.007-.027.006-.027.007-.027.006-.028.006-.027.006-.027.006-.028.006-.027.005-.027.006-.028.005-.027.005-.027.005-.027.005-.028.005-.027.004-.027.005-.028.004-.027.004-.027.004-.027.004-.028.004-.027.003-.027.004-.028.003-.027.003-.027.003-.027.003-.028.003-.027.002-.027.003-.028.002-.027.002-.016.002h-.011l-.027.002-.028.002-.027.001-.027.002h-.028l-.027.002h-.027l-.027.001h-.164l-.027-.001-.028-.001-.027-.001-.027-.002-.028-.001-.027-.002-.027-.002-.027-.002-.028-.003-.027-.003-.027-.003-.028-.003-.027-.003-.027-.004-.028-.004-.027-.004-.027-.005-.027-.005-.028-.005-.027-.005-.027-.006-.028-.006-.027-.006-.027-.007-.027-.007-.028-.007a2.06 2.06 0 0 1-.027-.007l-.027-.008a2.457 2.457 0 0 1-.055-.017l-.027-.01c-.01-.002-.018-.006-.027-.009l-.028-.01-.027-.01-.027-.01-.028-.012-.027-.011-.027-.012a2.363 2.363 0 0 1-.082-.04l-.027-.013-.028-.015-.027-.015a2.039 2.039 0 0 1-.054-.033l-.028-.017-.027-.018a1.686 1.686 0 0 1-.11-.08l-.026-.021a1.61 1.61 0 0 1-.492-.703 1.848 1.848 0 0 1-.082-.302 2.204 2.204 0 0 1-.038-.431 2.491 2.491 0 0 1 .038-.431 2.027 2.027 0 0 1 .11-.374 1.744 1.744 0 0 1 .245-.412 1.64 1.64 0 0 1 .191-.196l.028-.023c.008-.008.018-.015.027-.022a1.816 1.816 0 0 1 .109-.08l.027-.018.028-.017a1.684 1.684 0 0 1 .054-.033l.027-.015.028-.015.027-.014a2.082 2.082 0 0 1 .055-.026l.027-.013.027-.012.027-.011.028-.012.027-.01.027-.01.028-.01.027-.01.027-.009a2.464 2.464 0 0 1 .082-.025l.027-.007.028-.007.027-.007.027-.007.027-.006.028-.006.027-.006.027-.005.028-.005.027-.005.027-.005.027-.004.028-.004.027-.004.027-.003.028-.003.027-.003.027-.003c.01 0 .018-.002.028-.003l.027-.002.027-.002.027-.002.028-.001.027-.002h.027l.028-.002h.027l.027-.001h.164l.027.001.027.001.028.001.027.002.027.001.028.002.027.002h.01l.017.002.027.002.028.002.027.002.027.003.028.003.027.003.027.002.027.004.028.003.027.003.027.004.028.003.027.004.027.004.027.004.028.004.027.005.027.004.028.005.027.005.027.005.027.005.028.005.027.005.027.006.028.006.027.005.027.006.028.007.027.006.027.006.027.007.028.007.027.007.027.007.028.007.027.007.027.008.027.007.028.008.027.008.027.008.028.009.027.008.027.009.027.008.028.01.027.008.027.01.028.009.027.01.027.009.027.01.028.01.027.01.027.01.028.01.027.011.027.01.027.012.028.01.027.012.027.011.028.012.027.011.027.012.027.012.028.012.027.012.027.012.028.013.027.012.027.013.027.013.028.013.027.013.027.013.027.013v-1.16l-.027-.006-.027-.007-.027-.006-.028-.006-.027-.006-.027-.006-.027-.006-.028-.006-.027-.006-.027-.006-.028-.006-.027-.005-.027-.006-.027-.005-.028-.006-.027-.005-.027-.006-.028-.005-.027-.005-.027-.006-.027-.005-.028-.005-.027-.005-.027-.005-.028-.005-.027-.005-.027-.005-.027-.005-.028-.005-.027-.004-.027-.005-.028-.005-.027-.004-.027-.005-.027-.004-.028-.005-.027-.004-.027-.004-.028-.004-.027-.005-.027-.004-.027-.004-.028-.004-.027-.004-.027-.004-.028-.004-.027-.003-.027-.004-.027-.004-.028-.003-.027-.004-.027-.004-.028-.003-.027-.003-.027-.004-.028-.003-.027-.003-.027-.003-.027-.003-.028-.003-.027-.003-.027-.003-.028-.003-.027-.002-.027-.003-.027-.002-.028-.003-.027-.002-.027-.003-.028-.002-.027-.002-.027-.002-.027-.002-.028-.002-.027-.002-.027-.002-.028-.001-.027-.002-.027-.001-.027-.002h-.028l-.014-.001-.013-.001-.027-.001-.028-.001-.027-.001-.027-.001-.027-.001-.028-.001h-.027l-.027-.002h-.055l-.027-.001-.027-.001h-.055l-.027-.001h-.055l-.027-.001h-.219l-.027.001h-.027l-.027.001h-.028l-.027.001-.027.001-.028.001h-.027l-.027.002h-.027l-.028.002-.027.001-.027.001-.028.002h-.027l-.027.002-.027.002-.028.001-.027.002-.027.002-.028.002-.027.002-.027.002-.027.002-.028.002-.027.002-.027.003-.028.002-.027.003-.027.002-.027.003-.028.003-.027.003-.027.003-.028.003-.027.003-.027.003-.027.003-.028.004-.027.003-.027.004-.028.004-.027.004-.027.004-.027.004-.028.004-.027.004-.027.005-.028.004-.027.005-.027.005-.028.005-.027.005-.027.005-.027.005-.028.005-.027.006-.027.006-.028.005-.027.006-.027.006-.027.006-.028.007-.027.006-.027.007-.028.007-.027.006-.027.007-.027.008-.028.007-.027.008-.027.007-.028.008-.027.008-.027.008-.027.009-.028.008-.027.01-.027.008-.028.01-.027.008-.027.01-.027.01-.028.01-.027.01-.027.01-.028.01-.027.011-.027.011-.027.012-.028.011-.027.012-.027.012-.028.012-.027.013-.027.013-.027.013-.028.013-.027.014c-.01.004-.018.01-.027.014l-.028.014-.027.015-.027.015-.027.015a3.232 3.232 0 0 0-.055.032l-.027.016-.028.017-.027.017-.027.018-.027.018a3.22 3.22 0 0 0-.055.038l-.027.019a2.869 2.869 0 0 0-.082.062z"/>
    </g>
</svg>
