<svg xmlns="http://www.w3.org/2000/svg" width="36" height="24" viewBox="0 0 36 24">
    <g fill="none" fill-rule="evenodd">
        <rect width="36" height="24" fill="#FFF" rx="4"/>
        <g fill-rule="nonzero">
            <path fill="#000" d="M13.52 21.396v-1.18a.703.703 0 0 0-.198-.538.683.683 0 0 0-.53-.206.715.715 0 0 0-.651.334.678.678 0 0 0-.613-.334.61.61 0 0 0-.542.28v-.232h-.404v1.876h.407v-1.04a.442.442 0 0 1 .11-.358.43.43 0 0 1 .344-.14c.268 0 .403.176.403.495v1.043h.407v-1.04a.446.446 0 0 1 .112-.357.433.433 0 0 1 .342-.142c.275 0 .407.177.407.496v1.043h.405zm2.268-.937v-.938h-.407v.228a.698.698 0 0 0-.582-.275c-.535 0-.97.44-.97.983 0 .542.435.982.97.982a.698.698 0 0 0 .582-.275v.228h.403l.004-.933zm-1.499 0a.563.563 0 0 1 .58-.534.565.565 0 0 1 .54.576.564.564 0 0 1-.972.385.566.566 0 0 1-.152-.427h.004zm10.115-.983c.133 0 .264.025.388.075a.968.968 0 0 1 .525.52c.101.252.101.535 0 .786a.95.95 0 0 1-.525.521c-.256.1-.54.1-.795 0a.957.957 0 0 1-.522-.52 1.056 1.056 0 0 1 0-.786.96.96 0 0 1 .522-.521c.127-.054.265-.081.403-.08l.004.005zm0 .393a.594.594 0 0 0-.23.043.544.544 0 0 0-.307.32.69.69 0 0 0 0 .488.542.542 0 0 0 .306.32.622.622 0 0 0 .653-.124.57.57 0 0 0 .123-.196.69.69 0 0 0 0-.487.57.57 0 0 0-.123-.197.554.554 0 0 0-.193-.124.594.594 0 0 0-.233-.055l.004.012zm-6.425.59c0-.59-.36-.983-.879-.983a.976.976 0 0 0-.955.996.976.976 0 0 0 .983.969c.276.01.545-.084.758-.263l-.194-.303a.875.875 0 0 1-.54.197.516.516 0 0 1-.554-.46h1.375c.006-.05.006-.098.006-.153zm-1.379-.165a.48.48 0 0 1 .487-.454.456.456 0 0 1 .328.13.469.469 0 0 1 .141.326l-.956-.002zm3.075-.295a1.18 1.18 0 0 0-.582-.161c-.22 0-.352.082-.352.22 0 .137.14.16.314.184l.194.028c.403.059.647.232.647.562 0 .33-.31.613-.843.613a1.323 1.323 0 0 1-.801-.244l.194-.318a.978.978 0 0 0 .616.196c.276 0 .423-.082.423-.227 0-.107-.105-.166-.326-.197l-.193-.027c-.415-.06-.64-.248-.64-.554 0-.374.302-.602.775-.602.265-.009.527.06.754.197l-.18.33zm1.939-.106h-.657v.847c0 .196.066.314.267.314a.737.737 0 0 0 .357-.106l.116.35a.937.937 0 0 1-.504.145c-.477 0-.644-.26-.644-.696v-.854h-.376v-.373h.376v-.57h.408v.57h.657v.373zm1.394-.42a.85.85 0 0 1 .287.05l-.124.393a.648.648 0 0 0-.252-.047c-.264 0-.388.173-.388.484v1.05h-.403v-1.876h.399v.228a.545.545 0 0 1 .489-.275l-.008-.008zm2.788 1.65a.192.192 0 0 1 .134.053.185.185 0 0 1-.06.303.18.18 0 0 1-.074.015.194.194 0 0 1-.175-.114.187.187 0 0 1 .041-.204.194.194 0 0 1 .124-.053h.01zm0 .332a.136.136 0 0 0 .1-.044.147.147 0 0 0-.044-.235.138.138 0 0 0-.112 0 .141.141 0 0 0-.047.031.147.147 0 0 0 0 .197.143.143 0 0 0 .103.043v.008zm.011-.234c.019-.001.036.005.05.016a.05.05 0 0 1 .018.04.047.047 0 0 1-.013.036.067.067 0 0 1-.041.018l.056.065h-.044l-.053-.065h-.017v.065h-.037v-.181l.081.006zm-.042.033v.047h.042a.04.04 0 0 0 .024 0 .02.02 0 0 0 0-.017.02.02 0 0 0 0-.018.04.04 0 0 0-.024 0l-.042-.012z"/>
            <path fill="#7673C0" d="M14.925 5.205h6.107v11.122h-6.107z"/>
            <path fill="#EB001B" d="M15.313 10.767a7.096 7.096 0 0 1 2.666-5.562 6.914 6.914 0 0 0-9.44.763c-2.47 2.71-2.47 6.887 0 9.596a6.914 6.914 0 0 0 9.44.763 7.096 7.096 0 0 1-2.666-5.56z"/>
            <path fill="#00A1DF" d="M29.27 10.767c0 2.707-1.526 5.177-3.929 6.36a6.905 6.905 0 0 1-7.362-.8 7.107 7.107 0 0 0 2.667-5.56c0-2.17-.984-4.22-2.667-5.562a6.905 6.905 0 0 1 7.363-.801c2.404 1.183 3.93 3.653 3.93 6.361l-.002.002z"/>
        </g>
    </g>
</svg>
