<svg xmlns="http://www.w3.org/2000/svg" xmlns:xlink="http://www.w3.org/1999/xlink" width="36" height="24" viewBox="0 0 36 24">
    <defs>
        <path id="a" d="M.75.27h20.787v2.676H.75z"/>
        <path id="c" d="M.397 17.428h22.157V.005H.397z"/>
    </defs>
    <g fill="none" fill-rule="evenodd">
        <rect width="36" height="24" fill="#FFF" rx="4"/>
        <g transform="translate(7 4)">
            <g transform="translate(.793 14.483)">
                <mask id="b" fill="#fff">
                    <use xlink:href="#a"/>
                </mask>
                <path fill="#231F20" d="M4.39 1.928c0-.323.21-.589.552-.589.327 0 .548.254.548.589 0 .334-.22.588-.548.588-.342 0-.551-.265-.551-.588zm1.473 0v-.919h-.396v.223a.687.687 0 0 0-.574-.27c-.51 0-.91.405-.91.966 0 .561.4.965.91.965a.687.687 0 0 0 .574-.27v.224h.396v-.92zm13.359 0c0-.323.208-.589.55-.589.328 0 .549.254.549.589 0 .334-.221.588-.548.588-.343 0-.551-.265-.551-.588zm2.142.75c.021 0 .038.004.049.015.012.01.017.022.017.039a.047.047 0 0 1-.013.034.072.072 0 0 1-.04.017l.055.064h-.043l-.05-.063h-.017v.063h-.036v-.17h.078zm-.011.228a.136.136 0 0 0 .128-.088.14.14 0 0 0 0-.11.137.137 0 0 0-.03-.046.14.14 0 0 0-.098-.04.13.13 0 0 0-.056.01.135.135 0 0 0-.045.03.137.137 0 0 0-.03.046.128.128 0 0 0-.01.055c0 .02.003.039.01.055a.137.137 0 0 0 .13.088zm0-.326a.185.185 0 0 1 .184.183.186.186 0 0 1-.316.13.183.183 0 0 1 .132-.313zm-.66-.652V.27h-.395v.96a.688.688 0 0 0-.574-.269c-.51 0-.91.405-.91.966 0 .561.4.965.91.965a.688.688 0 0 0 .574-.27v.224h.396v-.92zM10.77 1.32c.255 0 .418.162.46.447h-.943c.042-.266.202-.447.483-.447zm.008-.358c-.533 0-.905.393-.905.966 0 .584.388.965.932.965.273 0 .525-.069.745-.257l-.194-.297a.856.856 0 0 1-.528.192c-.256 0-.487-.119-.544-.45h1.35c.003-.049.007-.1.007-.153-.004-.573-.353-.966-.863-.966zm4.773.966c0-.323.21-.589.552-.589.328 0 .548.254.548.589 0 .334-.22.588-.548.588-.342 0-.552-.265-.552-.588zm1.473 0v-.919h-.396v.223a.689.689 0 0 0-.575-.27c-.509 0-.909.405-.909.966 0 .561.4.965.91.965.259 0 .448-.104.574-.27v.224h.396v-.92zm-3.705 0c0 .558.384.965.97.965a.948.948 0 0 0 .654-.219l-.19-.323a.794.794 0 0 1-.475.165c-.316-.004-.548-.235-.548-.588 0-.354.232-.585.548-.589a.79.79 0 0 1 .475.166l.19-.323a.945.945 0 0 0-.654-.22c-.586 0-.97.409-.97.966zm5.097-.966a.535.535 0 0 0-.479.27v-.223h-.393v1.838h.396v-1.03c0-.305.13-.474.389-.474a.64.64 0 0 1 .246.047l.123-.377a.84.84 0 0 0-.282-.05zm-10.597.193c-.19-.127-.453-.193-.742-.193-.46 0-.757.223-.757.589 0 .3.22.485.628.542l.186.027c.217.03.32.088.32.193 0 .141-.145.222-.415.222a.961.961 0 0 1-.605-.192l-.187.312c.218.161.491.238.788.238.525 0 .83-.25.83-.6 0-.323-.24-.492-.636-.55l-.186-.027c-.171-.023-.309-.058-.309-.18 0-.135.13-.216.347-.216.232 0 .456.089.566.158l.172-.323zm5.1-.193a.537.537 0 0 0-.479.27v-.223h-.392v1.838h.396v-1.03c0-.305.13-.474.388-.474a.64.64 0 0 1 .247.047l.122-.377a.84.84 0 0 0-.282-.05zm-3.373.047h-.647V.451h-.4v.558H8.13v.366h.37v.837c0 .427.163.681.631.681a.915.915 0 0 0 .494-.143L9.51 2.41a.723.723 0 0 1-.35.103c-.197 0-.262-.122-.262-.308v-.83h.647V1.01zM3.633 2.847V1.693c0-.434-.273-.727-.714-.73-.233-.005-.472.07-.64.327a.666.666 0 0 0-.6-.328.599.599 0 0 0-.533.274v-.227H.75v1.838h.4v-1.02c0-.319.174-.488.445-.488.262 0 .396.173.396.485v1.023h.399v-1.02c0-.319.182-.488.444-.488.27 0 .4.173.4.485v1.023h.4z" mask="url(#b)"/>
            </g>
            <mask id="d" fill="#fff">
                <use xlink:href="#c"/>
            </mask>
            <path fill="#FF5F00" d="M8.48 12.37h5.991V1.484H8.479z" mask="url(#d)"/>
            <path fill="#EB001B" d="M8.86 6.927a6.938 6.938 0 0 1 2.615-5.442A6.774 6.774 0 0 0 7.243.005C3.462.005.397 3.105.397 6.927c0 3.823 3.065 6.922 6.846 6.922a6.774 6.774 0 0 0 4.232-1.48A6.938 6.938 0 0 1 8.86 6.927" mask="url(#d)"/>
            <path fill="#F79E1B" d="M22.554 6.927c0 3.823-3.065 6.922-6.847 6.922a6.77 6.77 0 0 1-4.232-1.48 6.938 6.938 0 0 0 2.616-5.442 6.938 6.938 0 0 0-2.616-5.442 6.77 6.77 0 0 1 4.232-1.48c3.782 0 6.847 3.1 6.847 6.922M22.491 11.283v-.335h-.088l-.1.23-.101-.23h-.087v.335h.061v-.253l.095.218h.064l.094-.218v.253h.062zm-.554 0v-.278h.112v-.057h-.286v.057h.113v.278h.061z" mask="url(#d)"/>
        </g>
    </g>
</svg>
