<svg xmlns="http://www.w3.org/2000/svg" width="36" height="24" viewBox="0 0 36 24">
    <g fill="none" fill-rule="evenodd">
        <rect width="36" height="24" fill="#FFF" rx="4"/>
        <path fill="#01798A" d="M29.466 4.005l-6.078-.002h-.002l-.014.001c-.835.026-1.875.72-2.064 1.575l-2.875 13.17c-.19.862.326 1.565 1.155 1.578h6.386c.816-.042 1.61-.728 1.796-1.573l2.874-13.17c.193-.871-.335-1.58-1.178-1.58"/>
        <path fill="#024381" d="M18.433 18.748L21.308 5.58c.19-.855 1.23-1.549 2.064-1.575l-2.417-.002h-4.354c-.837.017-1.891.716-2.08 1.577l-2.876 13.17c-.19.862.326 1.565 1.155 1.578h6.788c-.83-.013-1.344-.716-1.155-1.579"/>
        <path fill="#DD0228" d="M11.645 18.748L14.521 5.58c.189-.861 1.243-1.56 2.08-1.577L11.023 4c-.842 0-1.922.706-2.115 1.579l-2.875 13.17c-.017.08-.027.158-.033.236v.244c.056.629.52 1.087 1.187 1.098H12.8c-.829-.013-1.345-.716-1.155-1.579"/>
        <path fill="#FFF" d="M16.719 13.598h.105c.097 0 .162-.034.193-.1l.274-.426h.735l-.153.28h.88l-.111.428h-1.048c-.121.188-.27.276-.448.266H16.6l.119-.448zm-.121.613h1.93l-.123.466h-.776l-.119.449h.755l-.123.465h-.755l-.175.664c-.044.11.013.16.17.15h.616l-.114.432h-1.182c-.224 0-.3-.133-.23-.399l.224-.847h-.483l.123-.465h.482l.119-.45h-.462l.123-.465zm3.08-1.142l-.03.272s.364-.283.694-.283h1.222l-.467 1.751c-.04.2-.205.3-.499.3h-1.384l-.325 1.23c-.018.065.008.1.078.1h.272l-.1.38h-.692c-.266 0-.377-.082-.333-.248l.917-3.502h.647zm1.034.495h-1.09l-.13.472s.181-.135.485-.14c.302-.005.648 0 .648 0l.087-.332zm-.395 1.096c.081.011.126-.022.132-.1l.066-.249h-1.092l-.091.349h.985zm-.736.566h.63l-.012.282h.167c.085 0 .127-.028.127-.084l.05-.182h.523l-.07.266c-.06.221-.216.337-.47.348h-.336l-.001.483c-.007.077.06.116.2.116h.315l-.102.382h-.756c-.212.01-.315-.094-.313-.316l.048-1.295zM11.953 10.736c-.085.433-.283.766-.59 1.002-.304.232-.697.349-1.177.349-.452 0-.783-.119-.995-.358a.951.951 0 0 1-.22-.645c0-.108.013-.223.038-.348l.511-2.555h.773l-.504 2.526a.841.841 0 0 0-.021.194c-.001.13.03.235.093.318.091.123.24.184.447.184.238 0 .434-.06.586-.182a.84.84 0 0 0 .296-.514l.506-2.526h.77l-.513 2.555M15.2 9.73h.605l-.474 2.281h-.604l.473-2.28m.19-.83h.611l-.114.553h-.61l.113-.554M16.341 11.838c-.158-.157-.238-.368-.24-.637a1.756 1.756 0 0 1 .032-.321c.073-.37.226-.665.461-.882.236-.217.52-.327.851-.327.272 0 .488.08.646.237.158.158.237.372.237.643a1.615 1.615 0 0 1-.034.329c-.07.365-.223.656-.459.869a1.216 1.216 0 0 1-.848.321c-.273 0-.488-.077-.646-.232m1.154-.452c.106-.12.183-.301.23-.543a1.387 1.387 0 0 0 .022-.224c0-.14-.035-.25-.104-.327-.07-.078-.167-.117-.294-.117a.521.521 0 0 0-.411.183c-.108.123-.185.307-.233.553a.847.847 0 0 0-.021.218c0 .14.034.248.104.324.069.076.166.114.295.114.168 0 .305-.06.412-.18"/>
        <path fill="#E02F41" d="M23.386 4.011l-2.43-.009 2.416.02c.005 0 .01-.01.014-.01"/>
        <path fill="#2E4F7D" d="M20.955 4.028L16.635 4c-.011 0-.023.009-.034.018l4.354.01"/>
        <path fill="#FFF" d="M22.256 13.617l.146-.532h.738l-.032.195s.378-.195.65-.195h.912l-.145.532h-.144l-.688 2.509h.143l-.136.498h-.144l-.06.216h-.714l.06-.216h-1.41l.137-.498h.14l.69-2.51h-.143zm.796 0l-.187.679s.321-.128.598-.164c.061-.237.141-.515.141-.515h-.552zm-.274.997l-.189.711s.356-.181.6-.197c.071-.275.142-.514.142-.514h-.553zm.138 1.512l.141-.516h-.55l-.143.516h.552zm1.785-3.074h.694l.03.265c-.005.068.033.1.116.1h.122l-.124.449h-.51c-.195.01-.295-.067-.304-.233l-.024-.581zm-.203.963h2.247l-.132.483h-.715l-.123.448h.715l-.133.481h-.796l-.18.282h.39l.09.565c.01.056.058.084.14.084h.122l-.127.465h-.429c-.222.011-.337-.066-.346-.232l-.103-.516-.355.549a.381.381 0 0 1-.386.216h-.655l.128-.465h.204c.084 0 .153-.039.216-.117l.555-.83h-.715l.132-.482h.776l.124-.448h-.777l.133-.483zM12.665 9.73h.546l-.062.33.078-.094a.837.837 0 0 1 .646-.294c.23 0 .395.07.5.208.102.14.13.331.081.578l-.3 1.554h-.562l.272-1.408c.028-.146.02-.254-.023-.324s-.124-.105-.242-.105a.514.514 0 0 0-.364.14.697.697 0 0 0-.198.387l-.25 1.31h-.562l.44-2.282M18.927 9.73h.546l-.062.33.077-.094a.838.838 0 0 1 .646-.294c.23 0 .396.07.5.208.101.14.13.331.08.578l-.299 1.554h-.562l.272-1.408c.028-.146.02-.254-.023-.324-.044-.07-.124-.105-.24-.105a.518.518 0 0 0-.366.14.689.689 0 0 0-.197.387l-.251 1.31h-.562l.44-2.282M21.628 8.316h1.586c.305 0 .54.071.703.212.161.142.242.346.242.612v.008c0 .05-.003.108-.008.17a2.599 2.599 0 0 1-.03.187c-.07.352-.233.635-.483.85-.252.213-.55.32-.893.32h-.85l-.264 1.337h-.736l.733-3.696m.396 1.717h.706c.184 0 .33-.044.436-.132.105-.088.175-.223.214-.406l.015-.093c.002-.026.005-.053.005-.078 0-.131-.045-.226-.135-.286-.09-.06-.231-.089-.427-.089h-.599l-.215 1.084M27.456 12.453c-.233.513-.455.812-.585.95-.13.138-.389.458-1.011.434l.053-.391c.524-.167.807-.92.969-1.254l-.193-2.456.405-.005h.34l.037 1.54.637-1.54h.645l-1.297 2.722M25.653 9.916l-.257.183c-.267-.217-.512-.351-.984-.125-.642.309-1.18 2.675.59 1.896l.1.124.697.018.457-2.15-.603.054m-.396 1.176c-.112.342-.362.567-.558.503-.195-.063-.265-.392-.152-.734.112-.343.363-.568.557-.503.196.062.267.392.153.734"/>
    </g>
</svg>
